Coordinates
version=1
nRows=15
nColumns=34
inDegrees=yes

Units are S.I. units (second, meters, Newtons, ...)
If the header above contains a line with 'inDegrees', this indicates whether rotational values are in degrees (yes) or radians (no).

endheader
time	pelvis_tilt	pelvis_list	pelvis_rotation	pelvis_tx	pelvis_ty	pelvis_tz	hip_flexion_r	hip_adduction_r	hip_rotation_r	knee_angle_r	ankle_angle_r	subtalar_angle_r	mtp_angle_r	hip_flexion_l	hip_adduction_l	hip_rotation_l	knee_angle_l	ankle_angle_l	subtalar_angle_l	mtp_angle_l	lumbar_extension	lumbar_bending	lumbar_rotation	arm_flex_r	arm_add_r	arm_rot_r	elbow_flex_r	pro_sup_r	arm_flex_l	arm_add_l	arm_rot_l	elbow_flex_l	pro_sup_l
      2.98333330	      8.65561753	     -7.41908878	    -22.94669102	      3.37717640	      0.96741449	      1.09332201	     17.85510612	      0.33691012	      4.21246009	     17.81734025	     12.50806373	      1.65146979	      0.00000000	     24.59518418	      4.68159642	     -3.49962043	     21.03649483	     -8.79492024	    -14.97925776	      0.00000000	    -15.99478105	     -6.77338731	     -0.40103288	      5.45437273	    -13.32856324	     24.98820254	     98.57445867	    119.74817918	     -7.37377649	    -18.96005938	     23.04596936	    101.52240647	    119.74817918
      3.00000000	      8.77784638	     -7.78239898	    -23.28368706	      3.37762222	      0.96811884	      1.09467065	     18.29406421	      0.57494221	      4.06379727	     18.48531104	     11.55334339	      2.25505108	      0.00000000	     24.53503343	      4.27382008	     -3.15673076	     21.66740501	     -8.58685322	    -15.10823658	      0.00000000	    -16.54661795	     -6.57008041	     -0.25672871	      6.46009380	    -13.28084675	     24.90813465	     98.35138283	    119.74817918	     -7.15249394	    -19.13736115	     23.76090378	    101.28538405	    119.74817918
      3.01666670	      8.52882575	     -8.65470729	    -23.74802268	      3.37860442	      0.96918031	      1.09606777	     18.70635357	      1.28282683	      2.87875630	     18.77077492	      9.45209960	      3.65693031	      0.00000000	     24.71711639	      3.14207343	     -3.08081592	     22.54410227	     -8.52342159	    -15.40479907	      0.00000000	    -16.75551370	     -5.68150912	      0.36897747	      7.14186123	    -13.73127763	     25.09973891	     98.50930727	    119.74817918	     -6.79388831	    -19.20097047	     25.00136200	    100.69609219	    119.74817918
      3.03333330	      8.37429107	     -9.10155743	    -23.87128685	      3.37798460	      0.97016506	      1.09684422	     19.77862198	      1.50308324	      1.65152333	     19.92282640	      6.35636140	      4.37705877	      0.00000000	     24.87884879	      2.55306699	     -2.81215436	     22.93088899	     -8.84742035	    -15.48793788	      0.00000000	    -17.32253713	     -5.34149220	      0.60278009	      7.70328292	    -13.58193720	     24.44434978	     98.52802902	    119.74817918	     -6.31864330	    -19.02022785	     25.05953170	    100.28635015	    119.74817918
      3.05000000	      7.88365668	     -9.67806245	    -23.92039892	      3.37680536	      0.97011819	      1.09731728	     21.31163674	      2.00932567	      0.53312082	     21.30946524	      2.87802154	      4.30977434	      0.00000000	     25.56405176	      1.80330412	     -2.13558208	     23.67409047	     -9.08666104	    -15.87233495	      0.00000000	    -17.73387809	     -4.68412454	      0.90503015	      8.63888167	    -13.57144401	     23.83601246	     98.16342483	    119.74817918	     -5.35676978	    -18.82858463	     25.43434433	     99.65720056	    119.74817918
      3.06666670	      7.60584363	    -10.26493122	    -24.17658684	      3.37585824	      0.97032277	      1.09859803	     22.57863320	      2.58330764	     -0.53907327	     22.66012332	     -0.18338062	      3.63396667	      0.00000000	     25.97677611	      1.04976257	     -1.59436897	     24.42138849	     -9.15560705	    -16.43320851	      0.00000000	    -18.20222150	     -4.17128813	      1.42942932	      9.61384604	    -13.73673871	     23.83417629	     97.72335905	    119.74817918	     -4.34319551	    -18.92552775	     25.84309392	     99.30167991	    119.74817918
      3.08333330	      7.42085734	    -10.89819631	    -24.20561749	      3.37637902	      0.97063034	      1.09996068	     23.35538127	      3.13332052	     -1.35298155	     23.64978766	     -2.33294918	      2.54081856	      0.00000000	     26.31940381	      0.38600400	     -0.97205445	     25.38341461	     -8.90709156	    -17.05352727	      0.00000000	    -18.46631521	     -3.50790105	      1.96784575	     10.14605857	    -14.33145734	     24.20120986	     97.82903730	    119.74817918	     -3.28153057	    -19.02366589	     26.38491627	     98.95556882	    119.74817918
      3.10000000	      7.43853711	    -11.50652248	    -23.83540599	      3.37801425	      0.97145530	      1.10093018	     23.78044237	      3.36260912	     -2.60475004	     24.63664181	     -4.23269508	      1.18521525	      0.00000000	     26.24710999	     -0.03058250	     -0.34871556	     25.93619412	     -8.70156394	    -17.45195287	      0.00000000	    -18.71762050	     -2.75485640	      2.11719129	     10.39353663	    -14.77793659	     24.68515638	     98.14025979	    119.74817918	     -2.37476902	    -19.07450589	     26.93805821	     98.71083703	    119.74817918
      3.11666670	      7.59476669	    -11.93413003	    -23.76947752	      3.38119395	      0.97286476	      1.10250987	     24.12045328	      3.35808114	     -3.92297567	     25.79990842	     -5.47710457	      0.51882332	      0.00000000	     25.74492299	     -0.33433597	     -0.31891735	     26.09765687	     -8.29600722	    -18.01518788	      0.00000000	    -18.72159292	     -2.24172215	      2.35032241	     10.16493727	    -15.09891306	     25.14925121	     98.29679167	    119.74817918	     -2.08551499	    -18.68616856	     26.73292192	     98.53927454	    119.74817918
      3.13333330	      7.57012087	    -12.66796615	    -22.36882235	      3.38548225	      0.97331333	      1.10350094	     23.75648024	      3.58962845	     -5.24481552	     26.07590814	     -6.33319994	     -0.69216516	      0.00000000	     25.46514538	     -0.34407162	      1.47043661	     26.40057049	     -8.18730109	    -19.08474663	      0.00000000	    -18.60908509	     -1.05790851	      1.53515857	      9.48843006	    -15.17649381	     25.10846893	     98.45819179	    119.74817918	     -1.74390733	    -18.56432356	     26.97908855	     98.09355949	    119.74817918
      3.15000000	      7.60860021	    -12.77736864	    -21.99262440	      3.38977115	      0.97375879	      1.10585776	     23.64846777	      3.57081802	     -5.63812632	     26.58381079	     -6.14585712	     -1.14570788	      0.00000000	     24.91021448	     -0.34963356	      1.33736373	     26.09472545	     -7.64564610	    -19.56355686	      0.00000000	    -18.17741153	     -0.83734803	      1.44766228	      8.67077913	    -15.27088251	     25.32545964	     98.23170192	    119.74817918	     -1.80709430	    -18.28114981	     26.88459691	     97.81436027	    119.74817918
      3.16666670	      7.82155168	    -13.17216525	    -20.91418429	      3.39416509	      0.97462682	      1.10736751	     23.12881125	      3.49934707	     -6.85810362	     26.90193810	     -5.84159012	     -1.78997670	      0.00000000	     24.03271005	     -0.21754306	      2.22870346	     25.54593074	     -7.43131296	    -20.38859559	      0.00000000	    -18.11935683	     -0.26706354	      1.08229012	      7.36599506	    -15.31808087	     24.88816566	     98.28778271	    119.74817918	     -1.61888190	    -17.95499202	     26.81500087	     97.34896556	    119.74817918
      3.18333330	      7.71663137	    -13.43484322	    -20.62473648	      3.39840500	      0.97501503	      1.10999938	     23.06317203	      3.73254185	     -7.36289578	     27.36097362	     -5.56467999	     -2.20309111	      0.00000000	     23.40228315	     -0.50186999	      2.00536083	     24.89469674	     -7.18526389	    -20.75245443	      0.00000000	    -17.61216080	      0.11084329	      1.08340630	      6.29893280	    -15.65268863	     24.98926765	     98.13341019	    119.74817918	     -1.91633067	    -17.91104033	     26.58353362	     97.22059819	    119.74817918
      3.20000000	      7.47074079	    -13.84221550	    -20.56224201	      3.40264467	      0.97509700	      1.11280903	     23.11673499	      4.20749122	     -7.72124785	     27.87968078	     -5.28742147	     -2.42083903	      0.00000000	     22.67210350	     -1.01050651	      2.02387834	     23.83733972	     -7.35560673	    -20.62672268	      0.00000000	    -17.03041351	      0.63098643	      1.14899422	      5.34228561	    -15.89362961	     25.11801774	     97.92297863	    119.74817918	     -2.27689812	    -17.92644194	     26.52159805	     97.27820828	    119.74817918
      3.21666670	      7.27467023	    -14.20631475	    -20.13140110	      3.40672982	      0.97531836	      1.11395228	     22.96778465	      4.45694280	     -8.28171607	     28.05110627	     -4.71949037	     -2.47111298	      0.00000000	     22.01225425	     -1.23384503	      2.36752142	     22.77131276	     -4.97597660	    -21.12712060	      0.00000000	    -16.74256958	      1.19387833	      0.94065078	      4.40027415	    -15.98546641	     24.57824579	     97.76328625	    119.74817918	     -2.34755043	    -17.55264354	     26.24347793	     97.13587853	    119.74817918
